<svg width="128" height="128" viewBox="0 0 128 128" fill="none" xmlns="http://www.w3.org/2000/svg">
<path d="M107 67C107 89.0914 89.0914 107 67 107C44.9086 107 27 89.0914 27 67C27 44.9086 44.9086 27 67 27C89.0914 27 107 44.9086 107 67Z" fill="#f00606"/>
<path fill-rule="evenodd" clip-rule="evenodd" d="M90.818 88.5751C91.1357 88.1234 91.027 87.4996 90.5753 87.1819L90.5712 87.1791L90.563 87.1734L90.5343 87.1535C90.5096 87.1365 90.474 87.1121 90.4278 87.081C90.3353 87.0186 90.2001 86.9288 90.0241 86.8155C89.6723 86.5888 89.1573 86.2681 88.4951 85.8846C87.1712 85.1179 85.2561 84.0989 82.8773 83.0806C78.3387 81.1377 72.079 79.183 65 79.012V65H100C100.552 65 101 64.5523 101 64C101 63.4477 100.552 63 100 63H65V48.988C72.079 48.817 78.3387 46.8623 82.8773 44.9194C85.2561 43.9011 87.1712 42.8821 88.4951 42.1154C89.1573 41.732 89.6723 41.4112 90.0241 41.1845C90.2001 41.0712 90.3353 40.9814 90.4278 40.919C90.474 40.8879 90.5096 40.8635 90.5343 40.8465L90.563 40.8266L90.5712 40.8209L90.5753 40.8181C91.027 40.5004 91.1357 39.8766 90.818 39.4249C90.5004 38.9732 89.8764 38.8648 89.4247 39.1822L89.4204 39.1851L89.3996 39.1995C89.3804 39.2128 89.3503 39.2334 89.3096 39.2608C89.2283 39.3156 89.1049 39.3977 88.9412 39.5031C88.6137 39.714 88.1257 40.0182 87.4928 40.3847C86.2266 41.118 84.3836 42.0991 82.0903 43.0808C77.713 44.9546 71.7284 46.8166 65 46.9874V32C65 31.4477 64.5523 31 64 31C63.4477 31 63 31.4477 63 32V46.9874C56.2717 46.8166 50.2871 44.9546 45.9098 43.0808C43.6165 42.0991 41.7735 41.118 40.5073 40.3847C39.8744 40.0182 39.3863 39.714 39.0589 39.5031C38.8952 39.3977 38.7717 39.3156 38.6904 39.2608C38.6498 39.2334 38.6197 39.2128 38.6004 39.1995L38.5797 39.1851L38.5749 39.1818C38.1232 38.8645 37.4996 38.9732 37.182 39.4249C36.8644 39.8766 36.9737 40.5008 37.4254 40.8185L37.4288 40.8209L37.437 40.8266L37.4658 40.8465C37.4905 40.8635 37.526 40.8879 37.5723 40.919C37.6648 40.9814 37.8 41.0712 37.976 41.1845C38.3278 41.4112 38.8428 41.732 39.505 42.1154C40.8288 42.8821 42.744 43.9011 45.1227 44.9194C49.6613 46.8622 55.921 48.8169 63 48.988V63H28C27.4477 63 27 63.4477 27 64C27 64.5523 27.4477 65 28 65H63V79.012C55.921 79.1831 49.6613 81.1377 45.1227 83.0806C42.744 84.0989 40.8288 85.1179 39.505 85.8846C38.8428 86.2681 38.3278 86.5888 37.976 86.8155C37.8 86.9288 37.6648 87.0186 37.5723 87.081C37.526 87.1122 37.4905 87.1365 37.4658 87.1535L37.437 87.1734L37.4288 87.1791L37.4254 87.1815C36.9737 87.4992 36.8644 88.1234 37.182 88.5751C37.4996 89.0268 38.1232 89.1355 38.5749 88.8182L38.5797 88.8149L38.6004 88.8005C38.6197 88.7872 38.6498 88.7666 38.6904 88.7392C38.7717 88.6844 38.8952 88.6023 39.0589 88.4969C39.3863 88.286 39.8744 87.9818 40.5073 87.6153C41.7735 86.882 43.6165 85.9009 45.9098 84.9192C50.2871 83.0454 56.2717 81.1834 63 81.0126V96C63 96.5523 63.4477 97 64 97C64.5523 97 65 96.5523 65 96V81.0126C71.7284 81.1834 77.713 83.0454 82.0903 84.9192C84.3836 85.9009 86.2266 86.882 87.4928 87.6153C88.1257 87.9818 88.6137 88.286 88.9412 88.4969C89.1049 88.6023 89.2283 88.6844 89.3096 88.7392C89.3503 88.7666 89.3804 88.7872 89.3996 88.8005L89.4204 88.8148L89.4247 88.8178C89.8764 89.1352 90.5004 89.0268 90.818 88.5751ZM38 40.0001C37.4248 40.8181 37.4254 40.8185 37.4254 40.8185L38 40.0001ZM37.4254 87.1815C37.4254 87.1815 37.4248 87.1819 38 87.9999L37.4254 87.1815Z" fill="black"/>
<path fill-rule="evenodd" clip-rule="evenodd" d="M106 64C106 87.196 87.196 106 64 106C40.804 106 22 87.196 22 64C22 40.804 40.804 22 64 22C87.196 22 106 40.804 106 64ZM64 104C86.0914 104 104 86.0914 104 64C104 41.9086 86.0914 24 64 24C41.9086 24 24 41.9086 24 64C24 86.0914 41.9086 104 64 104Z" fill="black"/>
</svg>
